<svg xmlns="http://www.w3.org/2000/svg" width="25.93" height="25.93" viewBox="0 0 25.93 25.93">
  <path id="up" d="M0,12.965A12.965,12.965,0,1,1,12.965,25.93,12.963,12.963,0,0,1,0,12.965Zm7.507,1.511,3.785-3.947v9.546a1.252,1.252,0,0,0,1.255,1.255h.836a1.252,1.252,0,0,0,1.255-1.255V10.529l3.785,3.947a1.256,1.256,0,0,0,1.793.021l.57-.575a1.25,1.25,0,0,0,0-1.772L13.854,5.212a1.25,1.25,0,0,0-1.772,0L5.139,12.15a1.25,1.25,0,0,0,0,1.772l.57.575A1.262,1.262,0,0,0,7.507,14.476Z" transform="translate(25.93 25.93) rotate(180)" fill="#26a682"/>
</svg>
