<svg xmlns="http://www.w3.org/2000/svg" width="31.568" height="31.568" viewBox="0 0 31.568 31.568">
  <path id="Path_3" data-name="Path 3" d="M15.784,2.806a48.4,48.4,0,0,1,6.314.175,8.134,8.134,0,0,1,2.981.526,6.159,6.159,0,0,1,2.981,2.981,8.134,8.134,0,0,1,.526,2.981c0,1.578.175,2.1.175,6.314a48.4,48.4,0,0,1-.175,6.314,8.134,8.134,0,0,1-.526,2.981,6.159,6.159,0,0,1-2.981,2.981,8.134,8.134,0,0,1-2.981.526c-1.578,0-2.1.175-6.314.175a48.4,48.4,0,0,1-6.314-.175,8.134,8.134,0,0,1-2.981-.526,6.159,6.159,0,0,1-2.981-2.981A8.134,8.134,0,0,1,2.981,22.1c0-1.578-.175-2.1-.175-6.314a48.4,48.4,0,0,1,.175-6.314,8.134,8.134,0,0,1,.526-2.981A6.3,6.3,0,0,1,4.735,4.735,2.965,2.965,0,0,1,6.489,3.508a8.134,8.134,0,0,1,2.981-.526,48.4,48.4,0,0,1,6.314-.175m0-2.806A51.82,51.82,0,0,0,9.3.175a10.827,10.827,0,0,0-3.858.7A6.866,6.866,0,0,0,2.631,2.631,6.866,6.866,0,0,0,.877,5.437,7.991,7.991,0,0,0,.175,9.3,51.82,51.82,0,0,0,0,15.784a51.82,51.82,0,0,0,.175,6.489,10.827,10.827,0,0,0,.7,3.858,6.866,6.866,0,0,0,1.754,2.806,6.866,6.866,0,0,0,2.806,1.754,10.827,10.827,0,0,0,3.858.7,51.82,51.82,0,0,0,6.489.175,51.82,51.82,0,0,0,6.489-.175,10.827,10.827,0,0,0,3.858-.7,7.358,7.358,0,0,0,4.56-4.56,10.827,10.827,0,0,0,.7-3.858c0-1.754.175-2.28.175-6.489A51.82,51.82,0,0,0,31.393,9.3a10.827,10.827,0,0,0-.7-3.858,6.866,6.866,0,0,0-1.754-2.806A6.866,6.866,0,0,0,26.132.877a10.827,10.827,0,0,0-3.858-.7A51.82,51.82,0,0,0,15.784,0m0,7.717a7.938,7.938,0,0,0-8.068,8.068,8.068,8.068,0,1,0,8.068-8.068m0,13.329a5.168,5.168,0,0,1-5.261-5.261,5.168,5.168,0,0,1,5.261-5.261,5.168,5.168,0,0,1,5.261,5.261,5.167,5.167,0,0,1-5.261,5.261M24.2,5.437a1.929,1.929,0,1,0,1.929,1.929A1.946,1.946,0,0,0,24.2,5.437" fill="#fafafa" fill-rule="evenodd"/>
</svg>
