<svg id="Layer_1" data-name="Layer 1" xmlns="http://www.w3.org/2000/svg" viewBox="0 0 393.33 65.27"><defs><style>.cls-1{fill:#fafafa;}</style></defs><path class="cls-1" d="M40,108.6h-27L7.47,121.29H0L23,70.52h7.18l23.06,50.77H45.62Zm-2.54-5.81-11-24.87L15.59,102.79Z" transform="translate(0 -70.52)"/><path class="cls-1" d="M80.43,82.49v6.74a12.71,12.71,0,0,0-1.59-.07c-7.47,0-12.12,4.57-12.12,13v19.15h-7V82.85h6.67V89.3C68.9,84.81,73.69,82.49,80.43,82.49Z" transform="translate(0 -70.52)"/><path class="cls-1" d="M152.81,99.17v22.12h-7V100c0-7.55-3.62-11.25-9.93-11.25-7,0-11.54,4.43-11.54,12.77v19.8h-7V100c0-7.55-3.62-11.25-9.93-11.25-7,0-11.54,4.43-11.54,12.77v19.8H89V82.85h6.67v5.73c2.76-3.92,7.47-6.09,13.28-6.09s10.8,2.32,13.34,7.1c2.9-4.35,8.27-7.1,14.8-7.1C146.43,82.49,152.81,87.85,152.81,99.17Z" transform="translate(0 -70.52)"/><path class="cls-1" d="M160.8,117.23l2.9-5.52a24.6,24.6,0,0,0,13.49,4c6.45,0,9.14-2,9.14-5.22,0-8.63-24.3-1.16-24.3-16.46,0-6.89,6.17-11.53,16-11.53,5,0,10.66,1.3,14,3.48l-3,5.51a20,20,0,0,0-11.09-3c-6.1,0-9.07,2.25-9.07,5.3,0,9.06,24.37,1.67,24.37,16.61,0,7-6.38,11.38-16.61,11.38C170.3,121.72,164,119.76,160.8,117.23Z" transform="translate(0 -70.52)"/><path class="cls-1" d="M223.61,119a13.18,13.18,0,0,1-8.42,2.68c-7.76,0-12.18-4.28-12.18-12V88.58h-6.53V82.85H203V74.44h7v8.41h11v5.73H210v20.81c0,4.14,2.18,6.46,6,6.46a8.77,8.77,0,0,0,5.44-1.81Z" transform="translate(0 -70.52)"/><path class="cls-1" d="M252.69,82.49v6.74a12.71,12.71,0,0,0-1.59-.07c-7.48,0-12.12,4.57-12.12,13v19.15h-7V82.85h6.67V89.3C241.16,84.81,246,82.49,252.69,82.49Z" transform="translate(0 -70.52)"/><path class="cls-1" d="M257.33,102.07c0-11.46,8.49-19.58,20-19.58s19.95,8.12,19.95,19.58-8.42,19.65-19.95,19.65S257.33,113.53,257.33,102.07Zm32.93,0c0-8.2-5.51-13.49-12.91-13.49s-13,5.29-13,13.49,5.58,13.56,13,13.56S290.26,110.26,290.26,102.07Z" transform="translate(0 -70.52)"/><path class="cls-1" d="M343.43,99.17v22.12h-7V100c0-7.55-3.77-11.25-10.37-11.25-7.4,0-12.18,4.43-12.18,12.77v19.8h-7V82.85h6.67v5.8c2.83-3.91,7.76-6.16,13.85-6.16C336.83,82.49,343.43,87.85,343.43,99.17Z" transform="translate(0 -70.52)"/><path class="cls-1" d="M393.33,82.85v33.22c0,13.56-6.89,19.72-19.95,19.72-7,0-14.14-2-18.35-5.73l3.34-5.36c3.55,3,9.14,5,14.79,5,9.07,0,13.2-4.21,13.2-12.91v-3c-3.33,4-8.34,5.94-13.85,5.94-11.1,0-19.51-7.54-19.51-18.64s8.41-18.56,19.51-18.56c5.73,0,10.95,2.1,14.22,6.31v-6Zm-6.82,18.2c0-7.47-5.51-12.47-13.2-12.47S360,93.58,360,101.05s5.51,12.55,13.27,12.55S386.51,108.45,386.51,101.05Z" transform="translate(0 -70.52)"/></svg>