<svg xmlns="http://www.w3.org/2000/svg" width="31.502" height="25.551" viewBox="0 0 31.502 25.551">
  <path id="Path_2" data-name="Path 2" d="M47.975,27.551c11.9,0,18.376-9.8,18.376-18.376V8.3A14.226,14.226,0,0,0,69.5,4.975a14.528,14.528,0,0,1-3.675,1.05,6.809,6.809,0,0,0,2.8-3.5A16.052,16.052,0,0,1,64.6,4.1,6.25,6.25,0,0,0,59.876,2,6.575,6.575,0,0,0,53.4,8.475a3.412,3.412,0,0,0,.175,1.4,18.094,18.094,0,0,1-13.3-6.825A6.7,6.7,0,0,0,39.4,6.375,6.953,6.953,0,0,0,42.2,11.8a5.9,5.9,0,0,1-2.975-.875h0a6.4,6.4,0,0,0,5.25,6.3,5.4,5.4,0,0,1-1.75.175,2.978,2.978,0,0,1-1.225-.175,6.63,6.63,0,0,0,6.125,4.55,13.213,13.213,0,0,1-8.05,2.8A4.845,4.845,0,0,1,38,24.4a16.519,16.519,0,0,0,9.975,3.15" transform="translate(-38 -2)" fill="#fafafa" fill-rule="evenodd"/>
</svg>
